<svg width="267" height="267" viewBox="0 0 267 267" fill="none" xmlns="http://www.w3.org/2000/svg">
<g clip-path="url(#clip0_510_258)">
<path d="M198.5 74L256 5.66942H158L105 74M198.5 74H105M198.5 74L204.5 144L158 246H147.5M198.5 74L183.5 88L158 139L137 225M105 74L71.5 144L82.4412 216M87 246H137M87 246H2L82.4412 216M87 246L82.4412 216M137 225V243M137 225L121.5 144M137 225V246M137 246H147.5M147.5 246V261.5H198.5" stroke="black" stroke-width="16"/>
</g>
<defs>
<clipPath id="clip0_510_258">
<rect width="267" height="267" fill="white"/>
</clipPath>
</defs>
</svg>
